<?xml version="1.0" encoding="utf-8"?>
<!-- Generator: Adobe Illustrator 21.0.0, SVG Export Plug-In . SVG Version: 6.00 Build 0)  -->
<svg version="1.1" id="Layer_1" xmlns="http://www.w3.org/2000/svg" xmlns:xlink="http://www.w3.org/1999/xlink" x="0px" y="0px"
	 width="409.6px" height="409.6px" viewBox="0 0 409.6 409.6" style="enable-background:new 0 0 409.6 409.6;" xml:space="preserve"
	>
<style type="text/css">
	.st0{fill:#003399;}
	.st1{fill:#FFDA44;}
</style>
<g>
	<path class="st0" d="M409.6,204.8c0,113.1-91.7,204.8-204.8,204.8S0,317.9,0,204.8S91.7,0,204.8,0S409.6,91.7,409.6,204.8
		L409.6,204.8z"/>
	<path class="st1" d="M204.8,60l5.6,17.2h18.1l-14.7,10.6l5.6,17.2l-14.6-10.6l-14.7,10.6l5.6-17.2L181,77.3h18.1L204.8,60z"/>
	<path class="st1" d="M80.8,130.4l16.1,8.2l12.8-12.8l-2.9,17.9l16.1,8.2l-17.9,2.9l-2.9,17.9L94,156.5l-17.9,2.9l12.8-12.8
		L80.8,130.4z"/>
	<path class="st1" d="M127.6,83.6l16.1,8.2l12.8-12.8l-2.9,17.9l16.1,8.2l-17.9,2.9l-2.9,17.9l-8.2-16.1l-17.9,2.9l12.8-12.8
		L127.6,83.6z"/>
	<path class="st1" d="M272.6,99.7l12.8,12.8l-17.9-2.9l-8.2,16.1l-2.9-17.9l-17.9-2.9l16.1-8.2l-2.9-17.9l12.8,12.8l16.1-8.2
		L272.6,99.7z"/>
	<path class="st1" d="M60,204.8l17.2-5.6v-18.1l10.6,14.7l17.2-5.6l-10.6,14.6l10.6,14.7l-17.2-5.6l-10.6,14.7v-18.1L60,204.8z"/>
	<path class="st1" d="M80.8,279.2l8.2-16.1l-12.8-12.8l17.9,2.9l8.2-16.1l2.9,17.9l17.9,2.9l-16.1,8.2l2.9,17.9L96.9,271L80.8,279.2
		z"/>
	<path class="st1" d="M204.8,349.6l-5.6-17.2h-18.1l14.7-10.6l-5.6-17.2l14.7,10.6l14.7-10.6l-5.6,17.2l14.7,10.6h-18.1L204.8,349.6
		z"/>
	<path class="st1" d="M328.8,279.2l-16.1-8.2l-12.8,12.8l2.9-17.9l-16.1-8.2l17.9-2.9l2.9-17.9l8.2,16.1l17.9-2.9L320.6,263
		L328.8,279.2z"/>
	<path class="st1" d="M349.6,204.8l-17.2,5.6v18.1l-10.6-14.7l-17.2,5.6l10.6-14.7l-10.7-14.6l17.2,5.6l10.6-14.7v18.1L349.6,204.8z
		"/>
	<path class="st1" d="M328.8,130.4l-8.2,16.1l12.8,12.8l-17.9-2.9l-8.2,16.1l-2.9-17.9l-17.9-2.9l16.1-8.2l-2.9-17.9l12.8,12.8
		L328.8,130.4z"/>
	<path class="st1" d="M137.5,309.7l-12.8-12.8l17.9,2.9l8.2-16.1l2.9,17.9l17.9,2.9l-16.1,8.2l2.9,17.9l-12.8-12.8l-16.1,8.2
		L137.5,309.7z"/>
	<path class="st1" d="M282.5,325.8l-16.1-8.2l-12.8,12.8l2.9-17.9l-16.1-8.2l17.9-2.9l2.9-17.9l8.2,16.1l17.9-2.9l-12.8,12.8
		L282.5,325.8z"/>
</g>
</svg>
